<svg width="20" height="20" viewBox="0 0 20 20" fill="none" xmlns="http://www.w3.org/2000/svg">
<path fill-rule="evenodd" clip-rule="evenodd" d="M6.19541 3.50001C6.58553 3.50001 6.66224 3.50454 6.7265 3.51947C6.8078 3.53835 6.88538 3.57068 6.95603 3.61511C7.01188 3.65023 7.06911 3.70151 7.3438 3.97853L8.05873 4.69954L8.10296 4.7442L8.10297 4.7442C8.31887 4.96235 8.50922 5.15467 8.7392 5.29654C8.94123 5.42117 9.16172 5.51305 9.39247 5.56875C9.65514 5.63217 9.92574 5.63192 10.2327 5.63163L10.2955 5.63159H13.75C14.4624 5.63159 14.9517 5.63217 15.3309 5.66316C15.7014 5.69343 15.9004 5.74894 16.0445 5.82233C16.3738 5.99011 16.6415 6.25782 16.8093 6.58711C16.9281 6.82026 16.9847 7.15698 16.9965 8.01037C17 8.26405 17 8.43535 17 8.76622C17 9.18043 17.3358 9.51622 17.75 9.51622C18.1642 9.51622 18.5 9.18043 18.5 8.76622V8.76366C18.5 8.4351 18.5 8.25436 18.4963 7.98965C18.4849 7.16331 18.4433 6.49003 18.1458 5.90612C17.8342 5.29459 17.337 4.79741 16.7255 4.48582C16.3347 4.28673 15.9163 4.20599 15.4531 4.16814C15.0055 4.13157 14.4548 4.13158 13.7814 4.13159H13.7814L10.2955 4.13159C9.89058 4.13159 9.81106 4.12672 9.74448 4.11064C9.66757 4.09207 9.59407 4.06145 9.52673 4.01991C9.46844 3.98395 9.40899 3.93092 9.12387 3.64337L8.40893 2.92237L8.36631 2.87933C8.15826 2.66914 7.97489 2.48388 7.75454 2.34531C7.54257 2.21202 7.30983 2.11504 7.06593 2.05838C6.81239 1.99947 6.55171 1.99971 6.25597 1.99997L6.19541 2.00001L6.16517 2.00001C5.51653 2 4.98604 2 4.5544 2.03399C4.10779 2.06917 3.70382 2.14417 3.32441 2.32936C2.67335 2.64715 2.14714 3.17336 1.82935 3.82442C1.64416 4.20383 1.56916 4.6078 1.53399 5.05441C1.49999 5.48604 1.49999 6.01653 1.5 6.66516V6.66517V12.2814V12.2814C1.49999 12.9548 1.49998 13.5055 1.53655 13.9531C1.5744 14.4163 1.65514 14.8347 1.85423 15.2255C2.16582 15.837 2.663 16.3342 3.27453 16.6458C3.66527 16.8449 4.08367 16.9256 4.54693 16.9635C4.99448 17 5.54518 17 6.21853 17H6.21856H8.8258C9.24002 17 9.5758 16.6642 9.5758 16.25C9.5758 15.8358 9.24002 15.5 8.8258 15.5H6.25C5.53756 15.5 5.04833 15.4994 4.66908 15.4684C4.29858 15.4382 4.09956 15.3827 3.95552 15.3093C3.62623 15.1415 3.35852 14.8738 3.19074 14.5445C3.11735 14.4005 3.06184 14.2014 3.03157 13.8309C3.00058 13.4517 3 12.9625 3 12.25V6.69542C3 6.00918 3.00054 5.53796 3.02935 5.1722C3.05751 4.81472 3.10919 4.62201 3.17734 4.48239C3.34846 4.13181 3.6318 3.84847 3.98238 3.67735C4.122 3.6092 4.31471 3.55752 4.67219 3.52936C5.03795 3.50055 5.50917 3.50001 6.19541 3.50001ZM15 10C16.105 10 17 10.895 17 12C17 13.105 16.105 14 15 14C13.895 14 13 13.105 13 12C13 10.895 13.895 10 15 10ZM11 17.4975V17C11 15.25 13.665 14.75 15 14.75C16.335 14.75 19 15.25 19 17V17.4975C19 17.775 18.775 18 18.4975 18H11.5025C11.225 18 11 17.775 11 17.4975Z"/>
</svg>
